# xmcd
#
# Track frame offsets:
#	150
#	13932
#	26725
#	36035
#	48242
#	60592
#	71982
#	81712
#	92085
#	103767
#	114277
#	127015
#	136400
#	148310
#	157955
#	169427
#	181537
#	196265
#	206340
#	217272
#
# Disc length: 3053 seconds
#
# Revision: 8
# Processed by: cddbd v1.5.2PL0 Copyright (c) Steve Scherf et al.
# Submitted via: audiograbber 1.83.01
#
DISCID=2d0beb14
DTITLE=Various Artist - 1960 - Only Country- 1964
DYEAR=1995
DGENRE=Oldies
TTITLE0=Lefty Frizzell - Saginaw Michigan
TTITLE1=Patsy Cline - I Fall To Pieces
TTITLE2=Sonny James - Behind The Tear
TTITLE3=Del Reeves - Girl On The Billboard
TTITLE4=Hawkshaw Hawkins - Lonesome 7-7203
TTITLE5=Kitty Wells - Heartbreak U.S.A.
TTITLE6=Ned Miller - From A Jack To A King
TTITLE7=Ferlin Husky - Wings Of A Dove
TTITLE8=Wanda Jackson - In The Middle Of A Heartache
TTITLE9=Cowboy Copas - Alabam
TTITLE10=Bill Anderson - Still
TTITLE11=Loretta Lynn - Happy Birthday
TTITLE12=Johnny Cash - Ring Of Fire
TTITLE13=George Jones - The Race Is On
TTITLE14=Charlie Louvin - I Don't Like You Anymore
TTITLE15=George Jones And Melba Montgomery - We Must Have Been Out Of Our Minds
TTITLE16=Marty Robbins - Don't Worry
TTITLE17=Jean Shepard - Second Fiddle (To An Old Guitar)
TTITLE18=Faron Young - Hello Walls
TTITLE19=Roy Drusky - Another
EXTD=
EXTT0=Lefty Frizzell
EXTT1=Patsy Cline
EXTT2=Sonny James
EXTT3=Del Reeves
EXTT4=Hawkshaw Hawkins
EXTT5=Kitty Wells
EXTT6=Ned Miller
EXTT7=Ferlin Husky
EXTT8=Wanda Jackson
EXTT9=Cowboy Copas
EXTT10=Bill Anderson
EXTT11=Loretta Lynn
EXTT12=Johnny Cash
EXTT13=George Jones
EXTT14=Charlie Louvin
EXTT15=George Jones and Melba Montgomery
EXTT16=Marty Robbins
EXTT17=Jean Shepard
EXTT18=Faron Young
EXTT19=Roy Drusky
PLAYORDER=
